<svg version="1.1" id="Layer_1" xmlns="http://www.w3.org/2000/svg" xmlns:xlink="http://www.w3.org/1999/xlink" x="0px" y="0px"
	 width="100%" viewBox="0 0 256 256" enable-background="new 0 0 256 256" xml:space="preserve">
<path fill="transparent" opacity="1.000000" stroke="none" 
	d="
M142.000000,257.000000 
	C94.666672,257.000000 47.833340,257.000000 1.000006,257.000000 
	C1.000004,171.666672 1.000004,86.333351 1.000002,1.000018 
	C86.333321,1.000012 171.666641,1.000012 257.000000,1.000006 
	C257.000000,86.333313 257.000000,171.666626 257.000000,256.999969 
	C218.833328,257.000000 180.666672,257.000000 142.000000,257.000000 
M82.202904,51.275021 
	C47.774315,61.672684 25.187752,84.233200 18.388868,119.411499 
	C11.593506,154.571564 22.829102,184.736481 51.757431,208.173645 
	C46.637882,215.815292 41.628658,223.292267 36.655552,230.715317 
	C37.760525,231.091064 39.066124,231.877563 40.403915,231.936752 
	C53.246120,232.505096 65.864120,232.151016 76.835289,223.872971 
	C78.268135,222.791855 80.942963,222.704971 82.883774,223.050186 
	C101.340637,226.332886 119.472557,226.441269 137.285873,219.379669 
	C152.969009,213.162521 165.924408,203.565552 176.796967,190.011459 
	C178.518265,190.825424 180.361008,191.453033 181.941605,192.482941 
	C194.238434,200.495529 207.586014,201.417816 221.367523,199.030289 
	C216.234985,191.231979 211.279663,183.702911 206.885544,177.026535 
	C214.038895,168.952026 221.327637,162.339615 226.642593,154.405060 
	C239.601273,135.059280 243.596802,113.491455 240.046814,90.434219 
	C236.706741,68.740334 226.439682,51.144760 209.671021,37.144012 
	C184.803375,16.381113 156.416397,12.136105 126.094742,20.680273 
	C108.528580,25.630146 93.877434,35.982494 82.202904,51.275021 
z"/>
<path fill="#1995ad" opacity="1.000000" stroke="none" 
	d="
M176.040634,190.095551 
	C165.924408,203.565552 152.969009,213.162521 137.285873,219.379669 
	C119.472557,226.441269 101.340637,226.332886 82.883774,223.050186 
	C80.942963,222.704971 78.268135,222.791855 76.835289,223.872971 
	C65.864120,232.151016 53.246120,232.505096 40.403915,231.936752 
	C39.066124,231.877563 37.760525,231.091064 36.655552,230.715317 
	C41.628658,223.292267 46.637882,215.815292 51.757431,208.173645 
	C22.829102,184.736481 11.593506,154.571564 18.388868,119.411499 
	C25.187752,84.233200 47.774315,61.672684 82.990906,51.133636 
	C85.103523,50.938614 86.477982,51.096825 87.745110,50.798756 
	C101.288071,47.612968 114.916855,47.966938 127.953499,52.230694 
	C137.764221,55.439384 146.894028,60.729912 156.454071,65.379478 
	C160.040649,68.186310 163.500122,70.707382 167.022369,73.556900 
	C171.106934,78.936531 175.128677,83.987709 179.194489,89.374481 
	C180.814941,92.192467 182.391312,94.674850 184.030731,97.511002 
	C186.073456,102.912422 188.053131,107.960060 190.000336,113.399765 
	C190.638092,116.224388 191.308319,118.656952 191.982300,121.522263 
	C192.344849,127.008736 192.703644,132.062469 193.029510,137.552246 
	C192.986542,140.327927 192.976501,142.667557 192.714111,145.313782 
	C189.943192,155.134201 187.923172,164.820099 184.721054,174.098007 
	C182.768539,179.755280 178.995804,184.784332 176.040634,190.095551 
M126.609291,168.060883 
	C128.071167,170.777725 130.235580,172.310715 133.095062,170.454163 
	C136.120880,168.489594 134.825760,165.949203 133.328445,163.500671 
	C120.642349,142.755417 89.277092,142.745819 76.822701,163.488708 
	C75.358604,165.927155 74.035149,168.503784 77.050163,170.463928 
	C79.945152,172.346039 81.836685,170.483109 83.556984,168.014175 
	C94.744041,151.958786 114.781197,151.727478 126.609291,168.060883 
M77.478165,121.931541 
	C76.667412,122.769356 75.877731,123.628876 75.041725,124.440689 
	C73.005524,126.418007 71.801735,128.951065 74.458282,130.744949 
	C75.759094,131.623352 78.560516,130.821548 80.439598,130.124573 
	C81.860100,129.597687 82.894920,128.030991 84.002090,127.017929 
	C87.654617,128.376511 89.717400,135.053741 94.126205,130.817612 
	C98.818535,126.309059 91.461899,124.135612 90.725342,120.689781 
	C91.968430,117.284256 98.484283,115.351700 94.343498,111.103104 
	C89.855972,106.498756 87.611046,113.372978 84.112465,114.707314 
	C82.701508,113.387276 81.564171,111.613960 79.989601,111.039894 
	C78.245216,110.403900 76.101143,110.864174 74.131119,110.847069 
	C74.239929,112.786674 73.948334,114.868149 74.571007,116.625702 
	C75.184631,118.357719 76.724335,119.761650 77.478165,121.931541 
M133.018860,122.471306 
	C130.491928,119.338570 134.636688,118.841743 135.139038,116.969032 
	C135.668549,114.995117 135.597900,112.860214 135.789474,110.795647 
	C133.692856,110.953285 131.442612,110.696754 129.548218,111.399529 
	C128.031296,111.962273 126.946724,113.690422 125.778839,114.798363 
	C122.326454,112.749191 120.059502,107.029198 115.917419,110.808159 
	C110.961082,115.330009 118.651573,117.338943 119.262428,120.832985 
	C117.911331,124.283966 111.302925,126.482208 115.846169,130.821259 
	C120.271217,135.047409 122.319054,128.368149 125.959160,127.025352 
	C127.449074,128.364929 128.841187,130.213028 130.692764,131.081223 
	C132.028488,131.707535 134.552063,131.642014 135.487503,130.761169 
	C136.417847,129.885132 136.410355,127.525345 136.085587,125.968117 
	C135.851868,124.847443 134.422150,123.976204 133.018860,122.471306 
z"/>
<path fill="#1995ad" opacity="1.000000" stroke="none" 
	d="
M176.418793,190.053497 
	C178.995804,184.784332 182.768539,179.755280 184.721054,174.098007 
	C187.923172,164.820099 189.943192,155.134201 193.166672,145.314392 
	C196.027893,145.003830 198.381500,145.536926 200.283279,144.838928 
	C202.077652,144.180328 203.396545,142.226303 204.924591,140.842102 
	C203.456696,139.564438 202.165848,137.619186 200.477829,137.171478 
	C198.163910,136.557785 195.548599,137.080521 193.062454,137.116211 
	C192.703644,132.062469 192.344849,127.008736 192.438995,121.492630 
	C195.382919,121.019508 198.037216,121.535339 200.312515,120.829453 
	C202.094666,120.276566 203.407364,118.210541 204.928650,116.816803 
	C203.450699,115.545967 202.110947,113.452438 200.465942,113.176094 
	C197.074493,112.606384 193.520126,113.006569 190.032806,113.007706 
	C188.053131,107.960060 186.073456,102.912422 184.498016,97.452354 
	C189.379074,97.029205 193.856033,96.991905 198.332657,97.016861 
	C201.440369,97.034180 204.889557,97.069435 204.810837,92.862740 
	C204.739624,89.058289 201.524872,88.950272 198.549896,88.978363 
	C192.083801,89.039436 185.616959,89.023407 179.150421,89.038895 
	C175.128677,83.987709 171.106934,78.936531 167.486572,73.468597 
	C178.337723,73.035538 188.787567,72.994965 199.237244,73.018486 
	C202.176468,73.025101 204.880508,72.429993 204.828049,68.943535 
	C204.775848,65.474007 202.040680,64.964394 199.120193,64.978928 
	C184.855942,65.049896 170.591400,65.061272 156.326950,65.093719 
	C146.894028,60.729912 137.764221,55.439384 127.953499,52.230694 
	C114.916855,47.966938 101.288071,47.612968 87.745110,50.798756 
	C86.477982,51.096825 85.103523,50.938614 83.337631,50.972771 
	C93.877434,35.982494 108.528580,25.630146 126.094742,20.680273 
	C156.416397,12.136105 184.803375,16.381113 209.671021,37.144012 
	C226.439682,51.144760 236.706741,68.740334 240.046814,90.434219 
	C243.596802,113.491455 239.601273,135.059280 226.642593,154.405060 
	C221.327637,162.339615 214.038895,168.952026 206.885544,177.026535 
	C211.279663,183.702911 216.234985,191.231979 221.367523,199.030289 
	C207.586014,201.417816 194.238434,200.495529 181.941605,192.482941 
	C180.361008,191.453033 178.518265,190.825424 176.418793,190.053497 
z"/>
<path fill="#badce3" opacity="1.000000" stroke="none" 
	d="
M126.401382,167.754471 
	C114.781197,151.727478 94.744041,151.958786 83.556984,168.014175 
	C81.836685,170.483109 79.945152,172.346039 77.050163,170.463928 
	C74.035149,168.503784 75.358604,165.927155 76.822701,163.488708 
	C89.277092,142.745819 120.642349,142.755417 133.328445,163.500671 
	C134.825760,165.949203 136.120880,168.489594 133.095062,170.454163 
	C130.235580,172.310715 128.071167,170.777725 126.401382,167.754471 
z"/>
<path fill="#badce3" opacity="1.000000" stroke="none" 
	d="
M77.667938,121.620529 
	C76.724335,119.761650 75.184631,118.357719 74.571007,116.625702 
	C73.948334,114.868149 74.239929,112.786674 74.131119,110.847069 
	C76.101143,110.864174 78.245216,110.403900 79.989601,111.039894 
	C81.564171,111.613960 82.701508,113.387276 84.112465,114.707314 
	C87.611046,113.372978 89.855972,106.498756 94.343498,111.103104 
	C98.484283,115.351700 91.968430,117.284256 90.725342,120.689781 
	C91.461899,124.135612 98.818535,126.309059 94.126205,130.817612 
	C89.717400,135.053741 87.654617,128.376511 84.002090,127.017929 
	C82.894920,128.030991 81.860100,129.597687 80.439598,130.124573 
	C78.560516,130.821548 75.759094,131.623352 74.458282,130.744949 
	C71.801735,128.951065 73.005524,126.418007 75.041725,124.440689 
	C75.877731,123.628876 76.667412,122.769356 77.667938,121.620529 
z"/>
<path fill="#badce3" opacity="1.000000" stroke="none" 
	d="
M133.272400,122.732506 
	C134.422150,123.976204 135.851868,124.847443 136.085587,125.968117 
	C136.410355,127.525345 136.417847,129.885132 135.487503,130.761169 
	C134.552063,131.642014 132.028488,131.707535 130.692764,131.081223 
	C128.841187,130.213028 127.449074,128.364929 125.959160,127.025352 
	C122.319054,128.368149 120.271217,135.047409 115.846169,130.821259 
	C111.302925,126.482208 117.911331,124.283966 119.262428,120.832985 
	C118.651573,117.338943 110.961082,115.330009 115.917419,110.808159 
	C120.059502,107.029198 122.326454,112.749191 125.778839,114.798363 
	C126.946724,113.690422 128.031296,111.962273 129.548218,111.399529 
	C131.442612,110.696754 133.692856,110.953285 135.789474,110.795647 
	C135.597900,112.860214 135.668549,114.995117 135.139038,116.969032 
	C134.636688,118.841743 130.491928,119.338570 133.272400,122.732506 
z"/>
<path fill="#badce3" opacity="1.000000" stroke="none" 
	d="
M156.454071,65.379486 
	C170.591400,65.061272 184.855942,65.049896 199.120193,64.978928 
	C202.040680,64.964394 204.775848,65.474007 204.828049,68.943535 
	C204.880508,72.429993 202.176468,73.025101 199.237244,73.018486 
	C188.787567,72.994965 178.337723,73.035538 167.423767,73.140137 
	C163.500122,70.707382 160.040649,68.186310 156.454071,65.379486 
z"/>
<path fill="#badce3" opacity="1.000000" stroke="none" 
	d="
M179.194489,89.374496 
	C185.616959,89.023407 192.083801,89.039436 198.549896,88.978363 
	C201.524872,88.950272 204.739624,89.058289 204.810837,92.862740 
	C204.889557,97.069435 201.440369,97.034180 198.332657,97.016861 
	C193.856033,96.991905 189.379074,97.029205 184.434967,97.098587 
	C182.391312,94.674850 180.814941,92.192467 179.194489,89.374496 
z"/>
<path fill="#badce3" opacity="1.000000" stroke="none" 
	d="
M190.000336,113.399765 
	C193.520126,113.006569 197.074493,112.606384 200.465942,113.176094 
	C202.110947,113.452438 203.450699,115.545967 204.928650,116.816803 
	C203.407364,118.210541 202.094666,120.276566 200.312515,120.829453 
	C198.037216,121.535339 195.382919,121.019508 192.435272,121.059891 
	C191.308319,118.656952 190.638092,116.224388 190.000336,113.399765 
z"/>
<path fill="#badce3" opacity="1.000000" stroke="none" 
	d="
M193.029510,137.552246 
	C195.548599,137.080521 198.163910,136.557785 200.477829,137.171478 
	C202.165848,137.619186 203.456696,139.564438 204.924591,140.842102 
	C203.396545,142.226303 202.077652,144.180328 200.283279,144.838928 
	C198.381500,145.536926 196.027893,145.003830 193.419037,145.007812 
	C192.976501,142.667557 192.986542,140.327927 193.029510,137.552246 
z"/>
</svg>